<?xml version="1.0" standalone="no"?>
<!DOCTYPE svg PUBLIC "-//W3C//DTD SVG 20010904//EN"
 "http://www.w3.org/TR/2001/REC-SVG-20010904/DTD/svg10.dtd">
<svg version="1.0" xmlns="http://www.w3.org/2000/svg"
 viewBox="0 0 2600.000000 2600.000000"
 preserveAspectRatio="xMidYMid meet">
<metadata>
Created by potrace 1.15, written by Peter Selinger 2001-2017
</metadata>
<g transform="translate(0.000000,2600.000000) scale(0.100000,-0.100000)"
fill="#000000" stroke="none">
<path d="M11670 22694 c-138 -127 -502 -488 -644 -639 -1048 -1117 -1679
-2301 -1830 -3435 -55 -415 -47 -865 25 -1270 25 -144 80 -375 118 -500 16
-52 27 -96 26 -98 -2 -2 -41 23 -86 56 -280 199 -634 391 -964 524 -1341 539
-2875 446 -4500 -272 -230 -101 -795 -391 -838 -429 -4 -4 148 -335 338 -735
190 -401 344 -730 342 -732 -1 -2 -318 -175 -702 -385 -385 -210 -703 -384
-706 -388 -9 -8 66 -173 226 -496 586 -1186 1292 -2106 2095 -2731 743 -577
1604 -902 2473 -931 108 -3 197 -9 197 -13 0 -3 -30 -28 -67 -56 -297 -216
-624 -533 -875 -845 -575 -716 -931 -1601 -1057 -2624 -38 -305 -46 -445 -46
-830 0 -466 24 -791 90 -1220 31 -199 94 -528 103 -537 4 -4 365 40 802 96
437 57 796 102 798 101 2 -2 70 -357 151 -789 81 -432 150 -789 154 -793 19
-18 711 82 1087 157 1931 387 3285 1207 4019 2435 144 240 322 628 382 833 7
23 16 39 19 35 4 -4 20 -46 35 -93 15 -47 49 -140 76 -206 332 -837 860 -1527
1594 -2081 739 -558 1706 -962 2796 -1167 256 -49 734 -116 743 -105 2 2 70
360 151 794 82 435 149 791 149 791 1 1 361 -45 801 -102 439 -56 801 -102
803 -100 6 6 70 331 101 512 191 1120 200 2120 25 2994 -166 836 -493 1538
-983 2115 -170 201 -440 455 -648 613 -46 35 -83 67 -83 71 0 4 93 11 208 14
711 21 1445 220 2075 564 992 540 1811 1404 2482 2618 118 213 334 660 324
669 -2 2 -320 176 -706 387 -387 211 -703 387 -703 392 0 4 153 330 340 725
187 395 340 722 340 728 0 26 -765 425 -1090 568 -779 344 -1521 560 -2205
640 -444 53 -926 49 -1320 -10 -335 -49 -682 -145 -990 -271 -255 -104 -574
-278 -787 -428 -50 -36 -93 -63 -95 -61 -3 2 9 48 26 103 193 636 256 1313
180 1943 -147 1214 -736 2371 -1769 3475 -150 160 -506 505 -530 513 -5 2
-270 -243 -590 -545 -319 -301 -584 -549 -588 -551 -4 -1 -270 245 -591 548
-320 302 -585 550 -589 550 -4 0 -54 -43 -112 -96z m-302 -6620 c74 -37 193
-168 270 -296 248 -419 491 -1179 721 -2258 60 -284 114 -570 108 -576 -6 -6
-276 396 -444 661 -541 852 -888 1548 -984 1972 -32 141 -32 308 0 381 25 55
74 105 125 128 53 23 145 18 204 -12z m3092 -6 c39 -25 61 -47 83 -87 28 -50
31 -64 35 -165 3 -86 -1 -134 -18 -216 -96 -473 -528 -1309 -1206 -2330 -204
-307 -237 -353 -230 -320 3 14 24 122 46 240 228 1202 545 2219 822 2641 159
242 322 325 468 237z m-5149 -2153 c479 -83 1412 -569 2492 -1298 114 -77 206
-142 204 -144 -6 -5 -537 100 -797 158 -1646 368 -2492 776 -2355 1135 30 79
93 133 180 155 52 12 189 10 276 -6z m7266 0 c151 -45 219 -192 153 -331 -31
-65 -145 -178 -245 -244 -98 -64 -359 -193 -516 -254 -438 -171 -1081 -350
-1814 -505 -242 -51 -558 -111 -563 -106 -4 4 313 220 523 355 970 626 1727
1005 2170 1085 97 18 231 18 292 0z m-4603 -2123 c-21 -16 -133 -92 -249 -169
-595 -397 -1102 -697 -1550 -918 -280 -139 -406 -192 -595 -255 -399 -133
-627 -117 -713 50 -53 103 -24 212 87 325 257 262 994 542 2101 801 211 49
907 192 939 193 14 1 8 -7 -20 -27z m1896 -24 c638 -122 1331 -297 1797 -454
479 -160 789 -314 960 -477 90 -85 126 -154 126 -236 0 -114 -69 -195 -194
-227 -324 -83 -1087 239 -2189 926 -221 138 -780 508 -780 516 0 6 16 3 280
-48z m-553 -690 c703 -1052 1142 -1897 1243 -2389 28 -134 25 -290 -6 -359
-59 -127 -198 -176 -324 -113 -229 114 -481 619 -716 1433 -121 418 -273 1065
-354 1505 -17 94 -34 178 -36 188 -3 9 -3 17 0 17 2 0 90 -127 193 -282z
m-877 95 c-182 -962 -430 -1862 -652 -2363 -220 -497 -442 -702 -643 -592
-184 100 -176 396 25 898 140 350 406 850 739 1389 165 267 550 849 557 842 3
-3 -9 -81 -26 -174z"/>
</g>
</svg>
